# Blender v2.80 (sub 75) OBJ File: ''
# www.blender.org
mtllib barrel.mtl
o BARREL_Mesh
v -0.000000 -0.440466 -0.000000
v -0.000000 0.440466 0.000000
v 0.267842 -0.440466 -0.000000
v 0.202846 -0.112385 0.351339
v 0.405692 -0.112385 -0.000000
v 0.267842 0.440466 0.000000
v 0.133921 -0.440466 -0.231958
v -0.202846 0.103559 0.351339
v 0.202846 0.103559 0.351339
v 0.133921 0.440466 -0.231958
v -0.133921 -0.440466 -0.231958
v -0.202846 0.103559 -0.351339
v -0.405692 0.103559 0.000000
v -0.133921 0.440466 -0.231958
v -0.267842 -0.440466 -0.000000
v 0.405692 0.103559 0.000000
v 0.202846 0.103559 -0.351339
v -0.267842 0.440466 0.000000
v -0.133921 -0.440466 0.231958
v 0.202846 -0.112385 -0.351339
v -0.202846 -0.112385 -0.351339
v -0.133921 0.440466 0.231958
v 0.133921 -0.440466 0.231958
v -0.405692 -0.112385 -0.000000
v -0.202846 -0.112385 0.351339
v 0.133921 0.440466 0.231958
vt 0.930966 0.082535
vt 0.944142 0.108888
vt 0.917789 0.108888
vt 0.877873 0.082535
vt 0.907604 0.108888
vt 0.877873 0.108888
vt 0.927174 0.068972
vt 0.907604 0.068972
vt 0.957705 0.135241
vt 0.927974 0.108888
vt 0.957705 0.108888
vt 0.904612 0.082535
vt 0.917789 0.108888
vt 0.891436 0.108888
vt 0.904612 0.082535
vt 0.897831 0.119073
vt 0.930966 0.148804
vt 0.904612 0.148804
vt 0.897831 0.099503
vt 0.937747 0.119073
vt 0.930966 0.068972
vt 0.937747 0.099503
vt 0.930966 0.082535
vt 0.891436 0.108888
vt 0.957705 0.082535
vt 0.908404 0.108888
vt 0.927974 0.068972
vt 0.877873 0.082535
vt 0.908404 0.068972
vt 0.944142 0.108888
vt 0.904612 0.135241
vt 0.957705 0.108888
vt 0.927174 0.108888
vt 0.908404 0.148804
vt 0.927974 0.148804
vt 0.877873 0.108888
vt 0.930966 0.135241
vt 0.930966 0.135241
vt 0.937747 0.098703
vt 0.904612 0.068972
vt 0.930966 0.068972
vt 0.937747 0.118273
vt 0.897831 0.098703
vt 0.904612 0.148804
vt 0.897831 0.118273
vt 0.904612 0.135241
vt 0.877873 0.135241
vt 0.907604 0.148804
vt 0.957705 0.135241
vt 0.927174 0.148804
vt 0.904612 0.068972
vt 0.957705 0.082535
vt 0.877873 0.135241
vt 0.930966 0.148804
vn 0.0000 -1.0000 -0.0000
vn 0.8138 -0.3419 -0.4699
vn 0.8660 0.0000 -0.5000
vn -0.8138 -0.3419 0.4699
vn 0.0000 1.0000 0.0000
vn 0.0000 -0.3419 -0.9397
vn 0.0000 0.0000 -1.0000
vn 0.0000 0.3340 -0.9426
vn -0.8138 -0.3419 -0.4699
vn -0.8660 0.0000 -0.5000
vn -0.8163 0.3340 -0.4713
vn 0.8163 0.3340 -0.4713
vn -0.8660 0.0000 0.5000
vn -0.8163 0.3340 0.4713
vn 0.0000 -0.3419 0.9397
vn 0.0000 -0.0000 1.0000
vn 0.0000 0.3340 0.9426
vn 0.8138 -0.3419 0.4699
vn 0.8660 0.0000 0.5000
vn 0.8163 0.3340 0.4713
usemtl ROBIN_HOOD_ATLAS
s 1
f 7/1/1 3/2/1 1/3/1
f 7/4/2 5/5/2 3/6/2
f 17/7/3 5/5/3 20/8/3
f 19/9/4 24/10/4 15/11/4
f 10/12/5 2/13/5 6/14/5
f 11/15/1 7/1/1 1/3/1
f 21/16/6 7/17/6 11/18/6
f 12/19/7 20/20/7 21/16/7
f 12/19/8 10/21/8 17/22/8
f 14/23/5 2/13/5 10/12/5
f 15/24/1 11/15/1 1/3/1
f 24/10/9 11/25/9 15/11/9
f 13/26/10 21/27/10 24/10/10
f 13/26/11 14/28/11 12/29/11
f 18/30/5 2/13/5 14/23/5
f 19/31/1 15/24/1 1/3/1
f 17/7/12 6/32/12 16/33/12
f 8/34/13 24/10/13 25/35/13
f 8/34/14 18/36/14 13/26/14
f 22/37/5 2/13/5 18/30/5
f 23/38/1 19/31/1 1/3/1
f 4/39/15 19/40/15 23/41/15
f 9/42/16 25/43/16 4/39/16
f 9/42/17 22/44/17 8/45/17
f 26/46/5 2/13/5 22/37/5
f 3/2/1 23/38/1 1/3/1
f 5/5/18 23/47/18 3/6/18
f 16/33/19 4/48/19 5/5/19
f 16/33/20 26/49/20 9/50/20
f 6/14/5 2/13/5 26/46/5
f 7/4/2 20/8/2 5/5/2
f 17/7/3 16/33/3 5/5/3
f 19/9/4 25/35/4 24/10/4
f 21/16/6 20/20/6 7/17/6
f 12/19/7 17/22/7 20/20/7
f 12/19/8 14/51/8 10/21/8
f 24/10/9 21/27/9 11/25/9
f 13/26/10 12/29/10 21/27/10
f 13/26/11 18/36/11 14/28/11
f 17/7/12 10/52/12 6/32/12
f 8/34/13 13/26/13 24/10/13
f 8/34/14 22/53/14 18/36/14
f 4/39/15 25/43/15 19/40/15
f 9/42/16 8/45/16 25/43/16
f 9/42/17 26/54/17 22/44/17
f 5/5/18 4/48/18 23/47/18
f 16/33/19 9/50/19 4/48/19
f 16/33/20 6/32/20 26/49/20
