# Blender v2.80 (sub 75) OBJ File: ''
# www.blender.org
mtllib rock.mtl
o PlainStone_Plane
v -0.060640 0.382677 0.586659
v -0.727284 0.463140 -0.126099
v -0.301971 0.530768 -0.599343
v -0.044888 0.526007 -1.088531
v -0.660169 0.380617 -0.905499
v -0.990893 0.344600 -0.237575
v -1.047552 0.232769 0.645963
v -0.383240 0.171420 1.170173
v 0.377802 0.119040 1.133584
v 1.147553 0.263666 0.587156
v 1.318791 0.395965 -0.237091
v 0.733495 0.391276 -0.760208
v 0.502489 0.430359 0.286597
v 0.452299 0.510662 -0.346220
v 0.009359 0.048821 -1.327432
v -0.810604 0.013816 -1.031242
v -1.284997 0.022734 -0.117125
v -1.170886 -0.093899 0.643209
v -0.421174 -0.045142 1.301523
v 1.269892 -0.033599 0.681363
v 1.119302 0.029794 -0.846652
v 0.022213 -0.521569 -1.494898
v -0.935285 -0.515332 -1.119956
v -1.437920 -0.515331 -0.249367
v -1.263357 -0.515331 0.740630
v -0.493275 -0.515331 1.386805
v 0.511994 -0.515331 1.386805
v 1.282075 -0.515331 0.740630
v 1.550994 -0.515331 -0.249367
v 1.031594 -0.498341 -1.171556
vt 0.044648 0.953969
vt 0.045160 0.950947
vt 0.048135 0.953065
vt 0.043395 0.960621
vt 0.043656 0.958396
vt 0.046595 0.960311
vt 0.038700 0.957162
vt 0.040727 0.957129
vt 0.040271 0.959182
vt 0.040603 0.954540
vt 0.039330 0.954102
vt 0.045588 0.956539
vt 0.048417 0.957495
vt 0.041554 0.951123
vt 0.036714 0.957443
vt 0.044568 0.962980
vt 0.037962 0.952541
vt 0.038969 0.961151
vt 0.050047 0.957721
vt 0.040585 0.949614
vt 0.050197 0.964390
vt 0.043049 0.966316
vt 0.045612 0.949694
vt 0.051682 0.950911
vt 0.033206 0.957564
vt 0.034899 0.951126
vt 0.036377 0.964197
vt 0.053179 0.957684
vt 0.039912 0.947001
vt 0.046306 0.947001
vn -0.0043 0.9641 0.2654
vn -0.0373 0.9460 0.3219
vn 0.0891 0.9270 0.3645
vn 0.1852 0.9705 -0.1541
vn 0.0923 0.9957 0.0102
vn 0.1456 0.9875 0.0596
vn -0.2943 0.9459 -0.1367
vn -0.1304 0.9912 -0.0226
vn -0.0258 0.9964 -0.0806
vn -0.2428 0.9683 0.0590
vn -0.3997 0.9162 -0.0290
vn 0.0737 0.9736 0.2162
vn 0.1232 0.9561 0.2659
vn -0.1814 0.9573 0.2253
vn -0.3330 0.4024 -0.8527
vn -0.3457 0.3155 -0.8837
vn -0.3492 0.4288 -0.8332
vn 0.4958 0.6632 -0.5607
vn 0.3935 0.5494 -0.7371
vn 0.4071 0.5735 -0.7109
vn -0.7791 0.4850 -0.3973
vn -0.8072 0.4071 -0.4273
vn -0.7538 0.5604 -0.3430
vn 0.3917 0.3695 -0.8427
vn 0.4123 0.4449 -0.7950
vn 0.5423 0.3468 0.7653
vn 0.4716 0.2566 0.8437
vn 0.4652 0.4357 0.7706
vn -0.7756 0.6139 0.1471
vn -0.8828 0.4669 0.0520
vn -0.9354 0.3533 -0.0153
vn 0.8710 0.1965 -0.4502
vn 0.8621 0.1538 -0.4827
vn 0.8694 0.1876 -0.4571
vn -0.6317 0.2806 0.7226
vn -0.5929 0.3453 0.7275
vn -0.5029 0.5109 0.6971
vn 0.0548 0.3529 0.9341
vn 0.0745 0.3193 0.9447
vn 0.1063 0.4096 0.9060
vn -0.8399 0.2986 -0.4531
vn -0.8125 0.3462 -0.4691
vn 0.3511 0.3312 -0.8758
vn 0.5197 0.2315 0.8224
vn -0.9550 0.2420 0.1715
vn -0.9561 0.2350 0.1751
vn -0.9540 0.2482 0.1682
vn -0.6361 0.2829 0.7179
vn -0.6254 0.2311 0.7453
vn -0.3435 0.2498 -0.9053
vn -0.3531 0.2350 -0.9056
vn -0.3339 0.3199 -0.8867
vn 0.8651 0.4351 0.2496
vn 0.9455 0.2286 0.2318
vn 0.9413 0.2838 0.1829
vn 0.0762 0.5073 0.8584
vn -0.8244 0.3663 -0.4314
vn -0.6814 0.7012 0.2098
vn -0.6443 0.2758 0.7133
vn 0.0000 0.1785 0.9839
vn 0.3936 0.5494 -0.7371
vn 0.2586 0.4746 -0.8413
vn 0.5880 0.4041 0.7007
vn -0.9571 0.2281 0.1786
vn 0.9635 0.0566 0.2617
vn 0.9631 0.1856 0.1948
vn 0.8761 0.2290 -0.4243
usemtl Cavern
s 1
f 1/1/1 8/2/2 9/3/3
f 12/4/4 14/5/5 11/6/6
f 5/7/7 3/8/8 4/9/9
f 2/10/10 5/7/7 6/11/11
f 4/9/9 14/5/5 12/4/4
f 13/12/12 9/3/3 10/13/13
f 2/10/10 6/11/11 7/14/14
f 11/6/6 13/12/12 10/13/13
f 1/1/1 7/14/14 8/2/2
f 4/9/15 16/15/16 5/7/17
f 11/6/18 21/16/19 12/4/20
f 5/7/21 17/17/22 6/11/23
f 12/4/20 15/18/24 4/9/25
f 9/3/26 20/19/27 10/13/28
f 6/11/29 18/20/30 7/14/31
f 29/21/32 30/22/33 21/16/34
f 7/14/35 19/23/36 8/2/37
f 19/23/38 27/24/39 9/3/40
f 17/17/22 23/25/41 24/26/42
f 21/16/19 22/27/43 15/18/24
f 9/3/26 28/28/44 20/19/27
f 18/20/45 24/26/46 25/29/47
f 19/23/36 25/29/48 26/30/49
f 16/15/16 22/27/50 23/25/51
f 2/10/10 3/8/8 5/7/7
f 4/9/9 3/8/8 14/5/5
f 13/12/12 1/1/1 9/3/3
f 13/12/12 14/5/5 1/1/1
f 11/6/6 14/5/5 13/12/12
f 1/1/1 2/10/10 7/14/14
f 4/9/15 15/18/52 16/15/16
f 10/13/53 20/19/54 11/6/55
f 8/2/56 19/23/38 9/3/40
f 5/7/21 16/15/57 17/17/22
f 12/4/20 21/16/19 15/18/24
f 6/11/29 17/17/58 18/20/30
f 7/14/35 18/20/59 19/23/36
f 19/23/38 26/30/60 27/24/39
f 17/17/22 16/15/57 23/25/41
f 21/16/61 30/22/62 22/27/43
f 9/3/26 27/24/63 28/28/44
f 18/20/45 17/17/64 24/26/46
f 20/19/54 28/28/65 29/21/66
f 19/23/36 18/20/59 25/29/48
f 16/15/16 15/18/52 22/27/50
f 29/21/66 11/6/55 20/19/54
f 21/16/34 11/6/67 29/21/32
f 14/5/5 3/8/8 1/1/1
f 3/8/8 2/10/10 1/1/1
